<svg height="15" viewBox="-58 1 511 511.999" width="15" xmlns="http://www.w3.org/2000/svg"><path d="m318.253906 54.589844h-44.421875v-16.0625c0-21.242188-17.28125-38.527344-38.527343-38.527344h-73.84375c-21.246094 0-38.527344 17.285156-38.527344 38.527344v16.0625h-44.421875c-43.015625 0-78.011719 34.996094-78.011719 78.011718v5.640626c0 8.300781 6.730469 15.03125 15.027344 15.03125h20.625v310.925781c0 26.359375 21.445312 47.800781 47.800781 47.800781h228.859375c26.359375 0 47.800781-21.441406 47.800781-47.800781v-310.925781h20.625c8.300781 0 15.027344-6.730469 15.027344-15.03125v-5.640626c0-43.015624-34.996094-78.011718-78.011719-78.011718zm-165.261718-16.0625c0-4.667969 3.796874-8.46875 8.46875-8.46875h73.84375c4.671874 0 8.46875 3.800781 8.46875 8.46875v16.0625h-90.78125zm177.5625 425.671875c0 9.785156-7.960938 17.742187-17.742188 17.742187h-228.859375c-9.78125 0-17.742187-7.957031-17.742187-17.742187v-310.925781h264.34375zm-299.074219-340.984375c4.375-21.964844 23.800781-38.566406 47.03125-38.566406h239.742187c23.230469 0 42.65625 16.601562 47.03125 38.566406zm0 0"/><path d="m121.996094 374.191406h152.777344c8.300781 0 15.027343-6.730468 15.027343-15.027344v-152.777343c0-8.300781-6.726562-15.03125-15.027343-15.03125h-152.777344c-8.300782 0-15.03125 6.730469-15.03125 15.03125v152.777343c0 8.296876 6.730468 15.027344 15.03125 15.027344zm15.027344-50.925781h20.867187v20.867187h-20.867187zm50.925781 0h20.867187v20.867187h-20.867187zm71.792969 20.867187h-20.867188v-20.867187h20.867188zm0-122.71875v71.792969h-122.71875v-71.792969zm0 0"/></svg>